<svg width="250" height="250" viewBox="0 0 250 250" fill="none" xmlns="http://www.w3.org/2000/svg">
<g filter="url(#filter0_d_3647_5668)">
<rect x="65" y="65" width="120" height="120" rx="60" fill="#3669B6" shape-rendering="crispEdges"/>
<path d="M141.604 165.419C138.899 165.431 136.282 164.458 134.241 162.682C132.201 160.906 130.877 158.448 130.515 155.768C130.154 153.087 130.781 150.366 132.279 148.113C133.776 145.861 136.042 144.23 138.654 143.526L134.955 122.812C134.449 122.853 133.951 122.874 133.476 122.874C130.743 122.882 128.049 122.234 125.619 120.985C123.27 119.778 121.225 118.053 119.64 115.941L98.8939 129.567C99.7828 130.86 100.14 132.446 99.8917 133.995C99.6434 135.544 98.8085 136.939 97.56 137.889C96.3115 138.84 94.7452 139.273 93.1857 139.1C91.6261 138.927 90.193 138.161 89.1832 136.96C88.1734 135.759 87.6645 134.215 87.7618 132.649C87.8591 131.083 88.5552 129.614 89.7059 128.548C90.8566 127.481 92.3737 126.898 93.9426 126.919C95.5116 126.941 97.0121 127.565 98.1333 128.663L118.967 114.981C117.522 112.726 116.621 110.164 116.338 107.5C116.054 104.836 116.395 102.143 117.333 99.6332C118.271 97.1237 119.78 94.8671 121.742 93.0422C123.703 91.2174 126.062 89.8744 128.633 89.1196C131.204 88.3649 133.915 88.2192 136.551 88.6941C139.188 89.1689 141.678 90.2513 143.823 91.8554C145.969 93.4596 147.712 95.5414 148.913 97.9359C150.115 100.33 150.742 102.972 150.746 105.651C150.73 109.619 149.351 113.461 146.839 116.532C144.327 119.604 140.836 121.718 136.95 122.521L140.64 143.171C140.975 143.144 141.299 143.131 141.604 143.131C144.559 143.131 147.393 144.305 149.483 146.395C151.572 148.485 152.746 151.319 152.746 154.274C152.746 157.23 151.572 160.064 149.483 162.154C147.393 164.243 144.559 165.417 141.604 165.417V165.419ZM141.604 147.185C140.202 147.189 138.833 147.609 137.669 148.39C136.506 149.172 135.6 150.28 135.066 151.577C134.533 152.873 134.395 154.298 134.671 155.672C134.947 157.046 135.623 158.308 136.616 159.298C137.608 160.287 138.872 160.961 140.247 161.233C141.622 161.505 143.047 161.363 144.341 160.826C145.636 160.289 146.742 159.38 147.521 158.214C148.299 157.049 148.714 155.678 148.714 154.277C148.71 152.393 147.959 150.589 146.626 149.259C145.293 147.929 143.487 147.182 141.604 147.182V147.185ZM93.8601 128.95C93.059 128.952 92.2765 129.192 91.6114 129.638C90.9463 130.085 90.4285 130.718 90.1234 131.459C89.8182 132.2 89.7395 133.015 89.8971 133.8C90.0548 134.585 90.4417 135.307 91.0089 135.872C91.5762 136.438 92.2984 136.823 93.0843 136.978C93.8702 137.134 94.6845 137.053 95.4244 136.745C96.1643 136.438 96.7965 135.919 97.2412 135.252C97.686 134.586 97.9232 133.803 97.923 133.002C97.9203 131.926 97.491 130.895 96.7293 130.136C95.9676 129.376 94.9358 128.95 93.8601 128.95ZM133.476 92.482C130.873 92.4895 128.331 93.2682 126.17 94.7198C124.009 96.1715 122.327 98.2309 121.336 100.638C120.345 103.045 120.09 105.692 120.602 108.244C121.115 110.796 122.372 113.139 124.215 114.977C126.059 116.815 128.405 118.066 130.959 118.571C133.513 119.076 136.159 118.813 138.563 117.815C140.967 116.817 143.021 115.129 144.467 112.964C145.912 110.799 146.684 108.254 146.683 105.651C146.675 102.154 145.279 98.8041 142.803 96.3352C140.327 93.8664 136.973 92.4806 133.476 92.482Z" fill="#FEFEFE"/>
<ellipse cx="133.602" cy="105.518" rx="17.3562" ry="17.0971" fill="white"/>
<ellipse cx="133.602" cy="105.518" rx="17.3562" ry="17.0971" fill="black" fill-opacity="0.1"/>
<g filter="url(#filter1_df_3647_5668)">
<ellipse cx="131.781" cy="101.628" rx="10.6281" ry="8.33561" transform="rotate(-21.5202 131.781 101.628)" fill="white" fill-opacity="0.8" shape-rendering="crispEdges"/>
</g>
<ellipse cx="141.795" cy="154.219" rx="11.0448" ry="10.88" fill="white"/>
<ellipse cx="141.795" cy="154.219" rx="11.0448" ry="10.88" fill="black" fill-opacity="0.1"/>
<g filter="url(#filter2_df_3647_5668)">
<ellipse cx="140.636" cy="151.744" rx="6.76331" ry="5.30448" transform="rotate(-21.5202 140.636 151.744)" fill="white" fill-opacity="0.8" shape-rendering="crispEdges"/>
</g>
<ellipse cx="93.8738" cy="132.977" rx="6.31133" ry="6.21713" fill="white"/>
<ellipse cx="93.8738" cy="132.977" rx="6.31133" ry="6.21713" fill="black" fill-opacity="0.1"/>
<g filter="url(#filter3_df_3647_5668)">
<ellipse cx="93.2111" cy="131.562" rx="3.86475" ry="3.03113" transform="rotate(-21.5202 93.2111 131.562)" fill="white" fill-opacity="0.8" shape-rendering="crispEdges"/>
</g>
</g>
<defs>
<filter id="filter0_d_3647_5668" x="57" y="57" width="140" height="140" filterUnits="userSpaceOnUse" color-interpolation-filters="sRGB">
<feFlood flood-opacity="0" result="BackgroundImageFix"/>
<feColorMatrix in="SourceAlpha" type="matrix" values="0 0 0 0 0 0 0 0 0 0 0 0 0 0 0 0 0 0 127 0" result="hardAlpha"/>
<feOffset dx="2" dy="2"/>
<feGaussianBlur stdDeviation="5"/>
<feComposite in2="hardAlpha" operator="out"/>
<feColorMatrix type="matrix" values="0 0 0 0 0 0 0 0 0 0.196078 0 0 0 0 0.494118 0 0 0 0.3 0"/>
<feBlend mode="normal" in2="BackgroundImageFix" result="effect1_dropShadow_3647_5668"/>
<feBlend mode="normal" in="SourceGraphic" in2="effect1_dropShadow_3647_5668" result="shape"/>
</filter>
<filter id="filter1_df_3647_5668" x="110.55" y="84.1392" width="42.4631" height="39.1227" filterUnits="userSpaceOnUse" color-interpolation-filters="sRGB">
<feFlood flood-opacity="0" result="BackgroundImageFix"/>
<feColorMatrix in="SourceAlpha" type="matrix" values="0 0 0 0 0 0 0 0 0 0 0 0 0 0 0 0 0 0 127 0" result="hardAlpha"/>
<feMorphology radius="0.518094" operator="dilate" in="SourceAlpha" result="effect1_dropShadow_3647_5668"/>
<feOffset dy="2.07238"/>
<feGaussianBlur stdDeviation="5.18094"/>
<feComposite in2="hardAlpha" operator="out"/>
<feColorMatrix type="matrix" values="0 0 0 0 1 0 0 0 0 1 0 0 0 0 1 0 0 0 0.25 0"/>
<feBlend mode="normal" in2="BackgroundImageFix" result="effect1_dropShadow_3647_5668"/>
<feBlend mode="normal" in="SourceGraphic" in2="effect1_dropShadow_3647_5668" result="shape"/>
<feGaussianBlur stdDeviation="2.61638" result="effect2_foregroundBlur_3647_5668"/>
</filter>
<filter id="filter2_df_3647_5668" x="127.123" y="140.614" width="27.023" height="24.8961" filterUnits="userSpaceOnUse" color-interpolation-filters="sRGB">
<feFlood flood-opacity="0" result="BackgroundImageFix"/>
<feColorMatrix in="SourceAlpha" type="matrix" values="0 0 0 0 0 0 0 0 0 0 0 0 0 0 0 0 0 0 127 0" result="hardAlpha"/>
<feMorphology radius="0.329696" operator="dilate" in="SourceAlpha" result="effect1_dropShadow_3647_5668"/>
<feOffset dy="1.31878"/>
<feGaussianBlur stdDeviation="3.29696"/>
<feComposite in2="hardAlpha" operator="out"/>
<feColorMatrix type="matrix" values="0 0 0 0 1 0 0 0 0 1 0 0 0 0 1 0 0 0 0.25 0"/>
<feBlend mode="normal" in2="BackgroundImageFix" result="effect1_dropShadow_3647_5668"/>
<feBlend mode="normal" in="SourceGraphic" in2="effect1_dropShadow_3647_5668" result="shape"/>
<feGaussianBlur stdDeviation="1.66497" result="effect2_foregroundBlur_3647_5668"/>
</filter>
<filter id="filter3_df_3647_5668" x="85.489" y="125.203" width="15.444" height="14.2267" filterUnits="userSpaceOnUse" color-interpolation-filters="sRGB">
<feFlood flood-opacity="0" result="BackgroundImageFix"/>
<feColorMatrix in="SourceAlpha" type="matrix" values="0 0 0 0 0 0 0 0 0 0 0 0 0 0 0 0 0 0 127 0" result="hardAlpha"/>
<feMorphology radius="0.188398" operator="dilate" in="SourceAlpha" result="effect1_dropShadow_3647_5668"/>
<feOffset dy="0.753591"/>
<feGaussianBlur stdDeviation="1.88398"/>
<feComposite in2="hardAlpha" operator="out"/>
<feColorMatrix type="matrix" values="0 0 0 0 1 0 0 0 0 1 0 0 0 0 1 0 0 0 0.25 0"/>
<feBlend mode="normal" in2="BackgroundImageFix" result="effect1_dropShadow_3647_5668"/>
<feBlend mode="normal" in="SourceGraphic" in2="effect1_dropShadow_3647_5668" result="shape"/>
<feGaussianBlur stdDeviation="0.951409" result="effect2_foregroundBlur_3647_5668"/>
</filter>
</defs>
</svg>
